<svg xmlns="http://www.w3.org/2000/svg" xmlns:xlink="http://www.w3.org/1999/xlink" aria-hidden="true" role="img" class="iconify iconify--clarity" width="32" height="32" preserveAspectRatio="xMidYMid meet" viewBox="0 0 36 36"><path class="clr-i-solid clr-i-solid-path-1" d="M33 19a1 1 0 0 1-.71-.29L18 4.41L3.71 18.71A1 1 0 0 1 2.3 17.3l15-15a1 1 0 0 1 1.41 0l15 15A1 1 0 0 1 33 19z" fill="currentColor"></path><path class="clr-i-solid clr-i-solid-path-2" d="M18 7.79L6 19.83V32a2 2 0 0 0 2 2h7V24h6v10h7a2 2 0 0 0 2-2V19.76z" fill="currentColor"></path></svg>